<svg id="visual" viewBox="0 0 900 600" width="900" height="600" xmlns="http://www.w3.org/2000/svg" xmlns:xlink="http://www.w3.org/1999/xlink" version="1.1"><path d="M0 109L113 109L113 175L225 175L225 115L338 115L338 163L450 163L450 265L563 265L563 163L675 163L675 223L788 223L788 169L900 169L900 259L900 0L900 0L788 0L788 0L675 0L675 0L563 0L563 0L450 0L450 0L338 0L338 0L225 0L225 0L113 0L113 0L0 0Z" fill="#762eeb"></path><path d="M0 211L113 211L113 223L225 223L225 193L338 193L338 265L450 265L450 325L563 325L563 277L675 277L675 337L788 337L788 283L900 283L900 349L900 257L900 167L788 167L788 221L675 221L675 161L563 161L563 263L450 263L450 161L338 161L338 113L225 113L225 173L113 173L113 107L0 107Z" fill="#7e31ec"></path><path d="M0 355L113 355L113 367L225 367L225 307L338 307L338 391L450 391L450 415L563 415L563 385L675 385L675 445L788 445L788 379L900 379L900 499L900 347L900 281L788 281L788 335L675 335L675 275L563 275L563 323L450 323L450 263L338 263L338 191L225 191L225 221L113 221L113 209L0 209Z" fill="#8635ee"></path><path d="M0 487L113 487L113 505L225 505L225 559L338 559L338 511L450 511L450 481L563 481L563 547L675 547L675 499L788 499L788 511L900 511L900 559L900 497L900 377L788 377L788 443L675 443L675 383L563 383L563 413L450 413L450 389L338 389L338 305L225 305L225 365L113 365L113 353L0 353Z" fill="#8d39f0"></path><path d="M0 601L113 601L113 601L225 601L225 601L338 601L338 601L450 601L450 601L563 601L563 601L675 601L675 601L788 601L788 601L900 601L900 601L900 557L900 509L788 509L788 497L675 497L675 545L563 545L563 479L450 479L450 509L338 509L338 557L225 557L225 503L113 503L113 485L0 485Z" fill="#943df2"></path></svg>